<?xml version="1.0" standalone="no"?>
<!DOCTYPE svg PUBLIC "-//W3C//DTD SVG 20010904//EN"
 "http://www.w3.org/TR/2001/REC-SVG-20010904/DTD/svg10.dtd">
<svg version="1.0" xmlns="http://www.w3.org/2000/svg"
 width="512.000000pt" height="512.000000pt" viewBox="0 0 512.000000 512.000000"
 preserveAspectRatio="xMidYMid meet">

<g transform="translate(0.000000,512.000000) scale(0.100000,-0.100000)"
fill="#E9762B" stroke="none">
<path d="M3285 5104 c-72 -18 -134 -53 -198 -113 -162 -151 -184 -411 -51
-587 13 -17 24 -36 24 -43 0 -11 -205 -399 -219 -414 -5 -4 -32 2 -62 13 -85
34 -266 77 -395 96 -144 20 -460 15 -593 -10 -424 -79 -777 -267 -1071 -572
-380 -394 -573 -918 -539 -1468 14 -225 61 -431 145 -635 19 -46 32 -86 29
-90 -4 -3 -75 -42 -158 -87 -129 -69 -155 -87 -175 -120 -61 -104 23 -235 142
-222 26 3 98 36 194 88 85 45 157 78 161 74 4 -5 37 -47 73 -94 84 -109 219
-244 328 -328 47 -36 89 -69 94 -73 4 -4 -29 -76 -74 -161 -52 -96 -85 -168
-88 -194 -13 -117 113 -202 216 -144 42 24 61 52 156 232 32 60 59 108 61 108
3 0 42 -15 87 -34 393 -161 823 -193 1228 -91 544 137 1001 498 1253 992 95
186 156 363 193 564 25 133 30 449 10 593 -19 129 -62 310 -96 395 -11 30 -17
57 -13 62 15 14 403 219 414 219 7 0 26 -11 43 -24 139 -105 342 -115 499 -23
25 15 67 51 95 82 263 288 62 748 -328 748 -152 0 -288 -72 -370 -195 -49 -74
-72 -142 -79 -241 l-6 -79 -204 -109 c-112 -60 -204 -108 -205 -107 -1 2 -24
37 -50 78 -159 244 -396 471 -644 616 -1 0 47 93 107 205 l109 204 79 6 c99 7
167 30 241 79 235 157 263 489 58 692 -108 107 -266 149 -421 112z m193 -311
c48 -36 66 -70 66 -123 0 -146 -190 -203 -271 -81 -48 71 -20 174 57 214 43
22 111 18 148 -10z m-1418 -1062 c-323 -130 -562 -297 -768 -536 -565 -657
-639 -1594 -184 -2319 l62 -97 -42 30 c-243 179 -454 468 -558 766 -184 524
-93 1106 243 1549 293 387 788 642 1247 645 l95 0 -95 -38z m943 -211 c31 -18
84 -55 118 -81 l61 -48 -44 -11 c-255 -66 -490 -177 -699 -331 -108 -79 -306
-279 -392 -394 -182 -246 -304 -535 -364 -865 -24 -134 -24 -486 0 -620 39
-211 96 -382 192 -572 30 -59 52 -108 49 -108 -2 0 -44 26 -92 59 -250 169
-450 406 -573 682 -284 631 -151 1359 336 1844 224 224 463 360 760 436 159
39 236 48 426 46 l165 -2 57 -35z m1746 1 c121 -87 70 -271 -76 -271 -138 0
-203 159 -105 253 51 49 128 57 181 18z m-1251 -484 c114 -173 197 -374 244
-587 19 -91 22 -134 22 -325 0 -190 -3 -234 -22 -325 -22 -104 -91 -324 -99
-316 -3 2 -9 37 -14 78 -42 298 -178 622 -374 890 -84 114 -261 290 -383 381
l-103 76 81 41 c186 94 357 146 581 179 3 1 33 -41 67 -92z m-939 -354 c150
-87 346 -266 461 -421 251 -338 362 -743 320 -1164 l-11 -103 -77 -73 c-72
-69 -229 -189 -236 -181 -2 2 -9 51 -15 109 -40 352 -177 697 -390 975 -73 97
-259 281 -358 357 -51 39 -93 76 -93 83 0 19 106 183 168 260 51 63 170 185
181 185 2 0 25 -12 50 -27z m-462 -759 c239 -192 431 -467 528 -756 51 -154
75 -285 82 -445 l6 -141 -99 -32 c-94 -30 -301 -72 -316 -63 -4 2 -32 41 -61
86 -224 339 -317 760 -256 1157 11 75 49 240 54 240 3 0 30 -21 62 -46z"/>
</g>
</svg>
